<?xml version="1.0" encoding="UTF-8" standalone="no"?>
<!-- Created with Inkscape (http://www.inkscape.org/) -->
<svg xmlns:svg="http://www.w3.org/2000/svg" xmlns="http://www.w3.org/2000/svg" version="1.0" width="202.08" height="108.04" id="svg2618">
  <defs id="defs2620"/>
  <g transform="translate(-281.46187,-485.8403)" id="layer1">
    <g transform="matrix(1.25,0,0,-1.25,-54.531254,1498.7234)" id="g2586">
      <path d="M 274.796,778.654 L 286.015,778.654 C 291.317,791.064 307.63,800.103 326.936,800.103 C 333.502,800.103 339.725,799.056 345.283,797.187 L 345.283,800.196 C 338.356,802.815 330.386,804.308 321.903,804.308 C 298.902,804.308 279.659,793.341 274.796,778.654" id="path47" style="fill:#8aaf98;fill-opacity:1;fill-rule:nonzero;stroke:none"/>
      <path d="M 308.511,768.123 C 303.667,767.879 299.403,767.444 299.403,763.52 C 299.403,761.049 301.341,759.644 304.78,759.644 C 306.186,759.644 307.833,759.886 308.511,760.177 L 308.511,768.123 z M 304.974,754.945 C 297.125,754.945 293.201,758.044 293.201,763.374 C 293.201,770.496 300.614,771.901 308.511,772.338 L 308.511,773.693 C 308.511,776.408 306.621,777.424 303.617,777.424 C 301.147,777.424 298.144,776.648 296.302,775.874 L 294.655,780.332 C 296.835,781.251 300.566,782.221 304.345,782.221 C 311.03,782.221 314.762,779.604 314.762,772.918 L 314.762,756.833 C 312.823,755.817 308.899,754.945 304.974,754.945" id="path49" style="fill:#007978;fill-opacity:1;fill-rule:nonzero;stroke:none"/>
      <path d="M 326.244,754.945 C 322.997,754.945 319.751,755.817 317.812,756.833 L 319.945,761.873 C 321.253,761.049 324.159,760.177 326.049,760.177 C 328.423,760.177 329.973,761.291 329.973,763.035 C 329.973,764.972 328.278,765.796 325.952,766.621 C 322.658,767.831 318.491,769.382 318.491,774.517 C 318.491,779.12 321.979,782.221 328.085,782.221 C 331.428,782.221 334.141,781.398 336.127,780.332 L 334.091,775.825 C 332.978,776.504 330.652,777.328 328.909,777.328 C 326.583,777.328 325.226,776.165 325.226,774.615 C 325.226,772.628 326.922,771.853 329.198,771.029 C 332.638,769.769 336.853,768.316 336.853,763.035 C 336.853,758.142 333.219,754.945 326.244,754.945" id="path51" style="fill:#007978;fill-opacity:1;fill-rule:nonzero;stroke:none"/>
      <path d="M 355.458,755.525 L 355.458,772.724 C 355.458,775.34 353.859,776.94 350.856,776.94 C 349.304,776.94 347.803,776.648 346.931,776.31 L 346.931,755.525 L 340.342,755.525 L 340.342,780.332 C 343.105,781.445 346.445,782.221 350.759,782.221 C 358.51,782.221 362.094,779.024 362.094,773.403 L 362.094,755.525 L 355.458,755.525" id="path53" style="fill:#007978;fill-opacity:1;fill-rule:nonzero;stroke:none"/>
      <path d="M 334.282,729.873 C 357.283,729.873 376.525,740.841 381.389,755.527 L 370.17,755.527 C 364.868,743.118 348.555,734.079 329.25,734.079 C 322.683,734.079 316.461,735.126 310.903,736.995 L 310.903,733.987 C 317.83,731.367 325.8,729.873 334.282,729.873" id="path55" style="fill:#007978;fill-opacity:1;fill-rule:nonzero;stroke:none"/>
      <path d="M 358.616,797.762 C 358.488,798.154 358.411,798.602 358.411,798.602 L 358.392,798.602 C 358.392,798.602 358.313,798.154 358.185,797.762 L 357.317,795.122 L 359.487,795.122 L 358.616,797.762 z M 360.337,792.433 L 359.71,794.3 L 357.091,794.3 L 356.464,792.433 L 355.313,792.433 L 357.756,799.512 L 359.046,799.512 L 361.491,792.433 L 360.337,792.433" id="path57" style="fill:#8aaf98;fill-opacity:1;fill-rule:nonzero;stroke:none"/>
      <path d="M 364.991,792.336 C 363.66,792.336 362.633,793.127 362.633,794.495 L 362.633,799.512 L 363.74,799.512 L 363.74,794.485 C 363.74,793.734 364.296,793.284 364.991,793.284 C 365.687,793.284 366.245,793.734 366.245,794.485 L 366.245,799.512 L 367.348,799.512 L 367.348,794.495 C 367.348,793.127 366.322,792.336 364.991,792.336" id="path59" style="fill:#8aaf98;fill-opacity:1;fill-rule:nonzero;stroke:none"/>
      <path d="M 371.407,798.583 L 371.407,792.433 L 370.301,792.433 L 370.301,798.583 L 368.668,798.583 L 368.668,799.512 L 373.027,799.512 L 373.027,798.583 L 371.407,798.583" id="path61" style="fill:#8aaf98;fill-opacity:1;fill-rule:nonzero;stroke:none"/>
      <path d="M 376.666,798.642 C 375.6,798.642 375.043,797.517 375.043,795.972 C 375.043,794.427 375.6,793.303 376.666,793.303 C 377.732,793.303 378.29,794.427 378.29,795.972 C 378.29,797.517 377.732,798.642 376.666,798.642 z M 376.666,792.325 C 374.837,792.325 373.938,793.938 373.938,795.972 C 373.938,798.006 374.837,799.619 376.666,799.619 C 378.495,799.619 379.394,798.006 379.394,795.972 C 379.394,793.938 378.495,792.325 376.666,792.325" id="path63" style="fill:#8aaf98;fill-opacity:1;fill-rule:nonzero;stroke:none"/>
      <path d="M 383.039,798.769 C 382.69,798.769 382.316,798.711 382.092,798.622 L 382.092,796.236 L 382.924,796.236 C 383.93,796.236 384.517,796.598 384.517,797.507 C 384.517,798.29 384.046,798.769 383.039,798.769 z M 384.801,792.433 L 383.802,794.671 C 383.588,795.151 383.256,795.435 382.717,795.435 L 382.092,795.435 L 382.092,792.433 L 381.007,792.433 L 381.007,799.238 C 381.535,799.473 382.289,799.619 383.021,799.619 C 384.723,799.619 385.603,798.808 385.603,797.556 C 385.603,796.481 384.927,795.953 384.086,795.766 L 384.086,795.748 C 384.45,795.561 384.714,795.199 384.919,794.751 L 385.974,792.433 L 384.801,792.433" id="path65" style="fill:#8aaf98;fill-opacity:1;fill-rule:nonzero;stroke:none"/>
      <path d="M 387.861,792.433 L 388.9659,792.433 L 388.9659,799.5116 L 387.861,799.5116 L 387.861,792.433 z" id="path67" style="fill:#8aaf98;fill-opacity:1;fill-rule:nonzero;stroke:none"/>
      <path d="M 393.543,798.583 L 393.543,792.433 L 392.438,792.433 L 392.438,798.583 L 390.803,798.583 L 390.803,799.512 L 395.165,799.512 L 395.165,798.583 L 393.543,798.583" id="path69" style="fill:#8aaf98;fill-opacity:1;fill-rule:nonzero;stroke:none"/>
      <path d="M 398.627,800.128 L 397.863,800.128 L 398.568,801.409 C 398.734,801.585 398.978,801.663 399.183,801.663 C 399.399,801.663 399.585,801.565 399.632,801.409 L 398.627,800.128 z M 396.579,792.433 L 396.579,799.512 L 400.298,799.512 L 400.298,798.583 L 397.666,798.583 L 397.666,796.5 L 400.062,796.5 L 400.062,795.591 L 397.666,795.591 L 397.666,793.361 L 400.298,793.361 L 400.298,792.433 L 396.579,792.433" id="path71" style="fill:#8aaf98;fill-opacity:1;fill-rule:nonzero;stroke:none"/>
      <path d="M 371.339,786.862 C 371.005,786.862 370.672,786.814 370.486,786.726 L 370.486,781.563 C 370.644,781.485 370.974,781.426 371.339,781.426 C 372.433,781.426 373.265,782.238 373.265,784.144 C 373.265,786.051 372.433,786.862 371.339,786.862 z M 371.279,780.496 C 370.506,780.496 369.781,780.663 369.38,780.87 L 369.38,787.42 C 369.811,787.635 370.525,787.792 371.279,787.792 C 373.147,787.792 374.367,786.551 374.367,784.144 C 374.367,781.739 373.147,780.496 371.279,780.496" id="path73" style="fill:#8aaf98;fill-opacity:1;fill-rule:nonzero;stroke:none"/>
      <path d="M 375.97,780.606 L 375.97,787.685 L 379.686,787.685 L 379.686,786.755 L 377.057,786.755 L 377.057,784.672 L 379.452,784.672 L 379.452,783.763 L 377.057,783.763 L 377.057,781.534 L 379.686,781.534 L 379.686,780.606 L 375.97,780.606" id="path75" style="fill:#8aaf98;fill-opacity:1;fill-rule:nonzero;stroke:none"/>
      <path d="M 386.131,780.496 C 385.454,780.496 384.773,780.654 384.371,780.87 L 384.751,781.828 C 385.074,781.651 385.592,781.485 386.092,781.485 C 386.874,781.485 387.401,781.887 387.401,782.541 C 387.401,783.147 386.866,783.44 386.267,783.705 C 385.426,784.086 384.45,784.595 384.45,785.797 C 384.45,787.02 385.339,787.792 386.687,787.792 C 387.361,787.792 387.938,787.625 388.281,787.42 L 387.929,786.521 C 387.665,786.667 387.187,786.843 386.727,786.843 C 386.032,786.843 385.554,786.471 385.554,785.855 C 385.554,785.258 386.15,784.936 386.745,784.663 C 387.549,784.292 388.525,783.802 388.525,782.59 C 388.525,781.318 387.596,780.496 386.131,780.496" id="path77" style="fill:#8aaf98;fill-opacity:1;fill-rule:nonzero;stroke:none"/>
      <path d="M 393.424,788.232 L 392.476,789.062 L 391.517,788.232 L 391.088,788.593 L 392.085,789.6 C 392.201,789.718 392.328,789.776 392.476,789.776 C 392.622,789.776 392.749,789.718 392.866,789.6 L 393.864,788.593 L 393.424,788.232 z M 392.465,780.507 C 391.138,780.507 390.11,781.299 390.11,782.667 L 390.11,787.685 L 391.216,787.685 L 391.216,782.658 C 391.216,781.904 391.772,781.456 392.465,781.456 C 393.161,781.456 393.717,781.904 393.717,782.658 L 393.717,787.685 L 394.822,787.685 L 394.822,782.667 C 394.822,781.299 393.796,780.507 392.465,780.507" id="path79" style="fill:#8aaf98;fill-opacity:1;fill-rule:nonzero;stroke:none"/>
      <path d="M 398.684,786.942 C 398.333,786.942 397.962,786.883 397.736,786.794 L 397.736,784.408 L 398.568,784.408 C 399.575,784.408 400.161,784.77 400.161,785.679 C 400.161,786.462 399.691,786.942 398.684,786.942 z M 400.445,780.606 L 399.446,782.844 C 399.232,783.323 398.899,783.607 398.363,783.607 L 397.736,783.607 L 397.736,780.606 L 396.651,780.606 L 396.651,787.411 C 397.179,787.645 397.93,787.792 398.664,787.792 C 400.368,787.792 401.246,786.981 401.246,785.728 C 401.246,784.653 400.572,784.125 399.731,783.939 L 399.731,783.92 C 400.093,783.734 400.355,783.372 400.562,782.922 L 401.619,780.606 L 400.445,780.606" id="path81" style="fill:#8aaf98;fill-opacity:1;fill-rule:nonzero;stroke:none"/>
      <path d="M 403.006,780.606 L 403.006,787.685 L 406.722,787.685 L 406.722,786.755 L 404.092,786.755 L 404.092,784.672 L 406.486,784.672 L 406.486,783.763 L 404.092,783.763 L 404.092,781.534 L 406.722,781.534 L 406.722,780.606 L 403.006,780.606" id="path83" style="fill:#8aaf98;fill-opacity:1;fill-rule:nonzero;stroke:none"/>
      <path d="M 410.428,786.755 L 410.428,780.606 L 409.324,780.606 L 409.324,786.755 L 407.689,786.755 L 407.689,787.685 L 412.051,787.685 L 412.051,786.755 L 410.428,786.755" id="path85" style="fill:#8aaf98;fill-opacity:1;fill-rule:nonzero;stroke:none"/>
      <path d="M 415.314,788.3 L 414.554,788.3 L 415.256,789.581 C 415.423,789.757 415.668,789.835 415.872,789.835 C 416.089,789.835 416.276,789.737 416.324,789.581 L 415.314,788.3 z M 413.273,780.606 L 413.273,787.685 L 416.987,787.685 L 416.987,786.755 L 414.358,786.755 L 414.358,784.672 L 416.754,784.672 L 416.754,783.763 L 414.358,783.763 L 414.358,781.534 L 416.987,781.534 L 416.987,780.606 L 413.273,780.606" id="path87" style="fill:#8aaf98;fill-opacity:1;fill-rule:nonzero;stroke:none"/>
      <path d="M 379.258,768.778 L 376.363,773.48 C 376.137,773.852 375.95,774.282 375.95,774.282 L 375.932,774.282 C 375.932,774.282 375.95,773.822 375.95,773.392 L 375.95,768.778 L 374.994,768.778 L 374.994,775.856 L 376.001,775.856 L 378.836,771.251 C 379.061,770.888 379.258,770.459 379.258,770.459 L 379.276,770.459 C 379.276,770.459 379.258,770.928 379.258,771.367 L 379.258,775.856 L 380.215,775.856 L 380.215,768.778 L 379.258,768.778" id="path89" style="fill:#8aaf98;fill-opacity:1;fill-rule:nonzero;stroke:none"/>
      <path d="M 384.391,768.68 C 383.06,768.68 382.031,769.471 382.031,770.84 L 382.031,775.856 L 383.138,775.856 L 383.138,770.83 C 383.138,770.077 383.696,769.628 384.391,769.628 C 385.083,769.628 385.641,770.077 385.641,770.83 L 385.641,775.856 L 386.745,775.856 L 386.745,770.84 C 386.745,769.471 385.72,768.68 384.391,768.68" id="path91" style="fill:#8aaf98;fill-opacity:1;fill-rule:nonzero;stroke:none"/>
      <path d="M 391.146,768.669 C 389.62,768.669 388.348,769.842 388.348,772.317 C 388.348,774.791 389.62,775.964 391.146,775.964 C 391.772,775.964 392.338,775.807 392.67,775.592 L 392.309,774.702 C 392.095,774.859 391.702,774.996 391.264,774.996 C 390.266,774.996 389.494,774.125 389.494,772.326 C 389.494,770.527 390.266,769.657 391.264,769.657 C 391.702,769.657 392.095,769.784 392.309,769.94 L 392.67,769.041 C 392.338,768.824 391.791,768.669 391.146,768.669" id="path93" style="fill:#8aaf98;fill-opacity:1;fill-rule:nonzero;stroke:none"/>
      <path d="M 394.168,768.778 L 394.168,775.856 L 395.273,775.856 L 395.273,769.705 L 397.707,769.705 L 397.707,768.778 L 394.168,768.778" id="path95" style="fill:#8aaf98;fill-opacity:1;fill-rule:nonzero;stroke:none"/>
      <path d="M 401.256,776.473 L 400.493,776.473 L 401.198,777.753 C 401.362,777.929 401.608,778.007 401.813,778.007 C 402.029,778.007 402.215,777.909 402.262,777.753 L 401.256,776.473 z M 399.212,768.778 L 399.212,775.856 L 402.927,775.856 L 402.927,774.927 L 400.298,774.927 L 400.298,772.844 L 402.693,772.844 L 402.693,771.934 L 400.298,771.934 L 400.298,769.705 L 402.927,769.705 L 402.927,768.778 L 399.212,768.778" id="path97" style="fill:#8aaf98;fill-opacity:1;fill-rule:nonzero;stroke:none"/>
      <path d="M 407.22,774.106 C 407.093,774.498 407.015,774.946 407.015,774.946 L 406.995,774.946 C 406.995,774.946 406.918,774.498 406.792,774.106 L 405.919,771.465 L 408.093,771.465 L 407.22,774.106 z M 408.942,768.778 L 408.317,770.644 L 405.696,770.644 L 405.07,768.778 L 403.915,768.778 L 406.36,775.856 L 407.652,775.856 L 410.094,768.778 L 408.942,768.778" id="path99" style="fill:#8aaf98;fill-opacity:1;fill-rule:nonzero;stroke:none"/>
      <path d="M 411.349,768.778 L 412.4526,768.778 L 412.4526,775.8561 L 411.349,775.8561 L 411.349,768.778 z" id="path101" style="fill:#8aaf98;fill-opacity:1;fill-rule:nonzero;stroke:none"/>
      <path d="M 416.421,775.112 C 416.069,775.112 415.698,775.055 415.473,774.966 L 415.473,772.579 L 416.304,772.579 C 417.311,772.579 417.898,772.942 417.898,773.852 C 417.898,774.634 417.428,775.112 416.421,775.112 z M 418.18,768.778 L 417.183,771.016 C 416.97,771.495 416.636,771.779 416.097,771.779 L 415.473,771.779 L 415.473,768.778 L 414.388,768.778 L 414.388,775.582 C 414.914,775.817 415.668,775.964 416.402,775.964 C 418.103,775.964 418.983,775.153 418.983,773.901 C 418.983,772.825 418.31,772.297 417.466,772.111 L 417.466,772.092 C 417.83,771.905 418.094,771.545 418.299,771.094 L 419.353,768.778 L 418.18,768.778" id="path103" style="fill:#8aaf98;fill-opacity:1;fill-rule:nonzero;stroke:none"/>
      <path d="M 420.741,768.778 L 420.741,775.856 L 424.457,775.856 L 424.457,774.927 L 421.828,774.927 L 421.828,772.844 L 424.224,772.844 L 424.224,771.934 L 421.828,771.934 L 421.828,769.705 L 424.457,769.705 L 424.457,768.778 L 420.741,768.778" id="path105" style="fill:#8aaf98;fill-opacity:1;fill-rule:nonzero;stroke:none"/>
    </g>
  </g>
<script xmlns=""/></svg>